<svg fill="none" height="24" viewBox="0 0 24 24" width="24" xmlns="http://www.w3.org/2000/svg"><path clip-rule="evenodd" d="m17.7143 7.64258c0-.82843-.6715-1.5-1.5-1.5h-8.42853c-.82843 0-1.5.67157-1.5 1.5v10.71432c0 .8284.67157 1.5 1.5 1.5h8.42853c.8285 0 1.5-.6716 1.5-1.5zm-5.7142 3.07142c.6311 0 1.1428-.5117 1.1428-1.14285 0-.63118-.5117-1.14286-1.1428-1.14286-.6312 0-1.1429.51168-1.1429 1.14286 0 .63115.5117 1.14285 1.1429 1.14285zm1.1428 2.2857c0 .6312-.5117 1.1429-1.1428 1.1429-.6312 0-1.1429-.5117-1.1429-1.1429s.5117-1.1428 1.1429-1.1428c.6311 0 1.1428.5116 1.1428 1.1428zm-1.1428 4.5714c.6311 0 1.1428-.5116 1.1428-1.1428s-.5117-1.1429-1.1428-1.1429c-.6312 0-1.1429.5117-1.1429 1.1429s.5117 1.1428 1.1429 1.1428z" fill="#a1afcd" fill-rule="evenodd"/><g stroke="#96a2be" stroke-linecap="round"><path d="m4 19v.5c0 1.3807 1.11929 2.5 2.5 2.5h.5"/><path d="m20 7v-.5c0-1.38071-1.1193-2.5-2.5-2.5h-.5"/></g></svg>