<svg width="20" height="16" viewBox="0 0 20 16" fill="none" xmlns="http://www.w3.org/2000/svg">
<path fill-rule="evenodd" clip-rule="evenodd" d="M10.3666 0.743813C10.1175 0.61925 9.82428 0.61925 9.57515 0.743813L0.726079 5.16835C0.426286 5.31824 0.236916 5.62465 0.236916 5.95983C0.236916 6.29501 0.426286 6.60142 0.726079 6.75132L3.61304 8.1948L0.736323 9.58732C0.432791 9.73425 0.239154 10.0409 0.236991 10.3781C0.234828 10.7154 0.424515 11.0245 0.726137 11.1753L9.57521 15.5998C9.82433 15.7244 10.1176 15.7244 10.3667 15.5998L19.2158 11.1753C19.5109 11.0277 19.6994 10.7282 19.7048 10.3982C19.7102 10.0683 19.5315 9.76274 19.2413 9.60563L16.4881 8.11512L19.2157 6.75132C19.5155 6.60142 19.7049 6.29501 19.7049 5.95983C19.7049 5.62465 19.5155 5.31824 19.2157 5.16835L10.3666 0.743813ZM14.5555 9.0814L10.3666 11.1759C10.1175 11.3004 9.82428 11.3004 9.57515 11.1759L5.6011 9.18883C5.56663 9.21203 5.5301 9.23308 5.49161 9.25171L3.12631 10.3967L9.97095 13.819L16.9037 10.3526L14.5555 9.0814ZM9.97089 9.39501L3.10053 5.95983L9.97089 2.52465L16.8412 5.95983L9.97089 9.39501Z" fill="#457EFF"/>
</svg>
