<svg width="23" height="25" viewBox="0 0 23 25" fill="none" xmlns="http://www.w3.org/2000/svg">
<g filter="url(#filter0_d_1828_9525)">
<path d="M3.32129 5.29199C3.32129 4.18742 4.21672 3.29199 5.32129 3.29199H17.6782C18.7828 3.29199 19.6782 4.18742 19.6782 5.29199V9.38449C19.6782 10.1128 19.2823 10.7835 18.6448 11.1354L17.4048 11.8199C17.086 11.9959 16.8881 12.3313 16.8881 12.6954V19.3123C16.8881 20.4169 15.9926 21.3123 14.8881 21.3123H5.32129C4.21672 21.3123 3.32129 20.4169 3.32129 19.3123V5.29199Z" stroke="#5E6A86" stroke-width="1.5" stroke-linecap="round" stroke-linejoin="round"/>
<path d="M13.9883 21.3123H17.6782C18.7828 21.3123 19.6782 20.4169 19.6782 19.3123V9.4187" stroke="#5E6A86" stroke-width="1.5" stroke-linecap="round" stroke-linejoin="round"/>
<path fill-rule="evenodd" clip-rule="evenodd" d="M9.84388 8.77276C9.74041 9.32125 9.15067 12.4109 9.0295 13.0409C8.90834 13.671 9.42763 14.2357 9.93748 14.2357C10.4473 14.2357 10.5147 14.2357 10.724 14.2357C10.9332 14.2357 11.2448 14.3828 11.1275 14.9185C11.0102 15.4541 10.889 16.0052 10.7698 16.5257C10.6506 17.0462 11.248 17.2561 11.507 16.8503C11.766 16.4445 13.6999 13.3474 13.9224 12.9309C14.145 12.5144 13.7804 11.8703 13.2318 11.8703C12.6831 11.8703 12.4561 11.8703 12.1682 11.8703C11.8804 11.8703 11.8401 11.6647 11.9445 11.2412C12.049 10.8176 12.1746 10.2636 12.3688 9.45169C12.563 8.63976 11.7804 8.19873 11.368 8.19873C10.9557 8.19873 10.5123 8.19873 10.3901 8.19873C10.2678 8.19873 9.94734 8.22426 9.84388 8.77276Z" fill="#5E6A86"/>
<path d="M13.9883 7.87359V3.44199C13.9883 3.35915 14.0554 3.29199 14.1383 3.29199H16.9942C17.0771 3.29199 17.1442 3.35915 17.1442 3.44199V7.87359C17.1442 8.0016 16.9942 8.07079 16.8968 7.98768L15.6636 6.93501C15.6075 6.88713 15.525 6.88713 15.4689 6.93501L14.2357 7.98768C14.1383 8.07079 13.9883 8.0016 13.9883 7.87359Z" fill="#5E6A86"/>
</g>
<defs>
<filter id="filter0_d_1828_9525" x="0" y="0.541992" width="23" height="23.5203" filterUnits="userSpaceOnUse" color-interpolation-filters="sRGB">
<feFlood flood-opacity="0" result="BackgroundImageFix"/>
<feColorMatrix in="SourceAlpha" type="matrix" values="0 0 0 0 0 0 0 0 0 0 0 0 0 0 0 0 0 0 127 0" result="hardAlpha"/>
<feMorphology radius="2" operator="dilate" in="SourceAlpha" result="effect1_dropShadow_1828_9525"/>
<feOffset/>
<feComposite in2="hardAlpha" operator="out"/>
<feColorMatrix type="matrix" values="0 0 0 0 1 0 0 0 0 1 0 0 0 0 1 0 0 0 0.01 0"/>
<feBlend mode="normal" in2="BackgroundImageFix" result="effect1_dropShadow_1828_9525"/>
<feBlend mode="normal" in="SourceGraphic" in2="effect1_dropShadow_1828_9525" result="shape"/>
</filter>
</defs>
</svg>
